/* XPM */
static char *_1cddb871bb94729d4f20c79abb31b91j4Go2rwevEm21y5p[] = {
/* columns rows colors chars-per-pixel */
"32 32 200 2 ",
"   c None",
".  c #033700",
"X  c #490000",
"o  c #550000",
"O  c #5B0000",
"+  c #560B01",
"@  c #561701",
"#  c #650000",
"$  c #6B0000",
"%  c #730100",
"&  c #7B0000",
"*  c #760C00",
"=  c #6B1302",
"-  c #742D03",
";  c #623C00",
":  c #763C06",
">  c #733B21",
",  c #184A13",
"<  c #395108",
"1  c #027A01",
"2  c #674301",
"3  c #6B4501",
"4  c #6D4C00",
"5  c #6C4E08",
"6  c #764808",
"7  c #775400",
"8  c #486E11",
"9  c #7E6201",
"0  c #7B611C",
"q  c #7A701A",
"w  c #5B5232",
"e  c #706932",
"r  c #3A2A56",
"t  c #030367",
"y  c #22226F",
"u  c #7F615C",
"i  c #777B69",
"p  c #7A7F75",
"a  c #830000",
"s  c #8D0000",
"d  c #940000",
"f  c #9C0000",
"g  c #921601",
"h  c #A40000",
"j  c #BC0000",
"k  c #B11C00",
"l  c #913002",
"z  c #A43431",
"x  c #C10000",
"c  c #CC0000",
"v  c #D70000",
"b  c #E30000",
"n  c #ED0000",
"m  c #F50000",
"M  c #FD0808",
"N  c #FF1313",
"B  c #EA2725",
"V  c #FF3535",
"C  c #FF2D2D",
"Z  c #8A5E08",
"A  c #805C03",
"S  c #974914",
"D  c #856B02",
"F  c #8D640A",
"G  c #8B6B0C",
"H  c #856709",
"J  c #946E0D",
"K  c #90670A",
"L  c #8B7304",
"P  c #8E7704",
"I  c #99750D",
"U  c #99770C",
"Y  c #8B6812",
"T  c #8A7617",
"R  c #9D7B11",
"E  c #9A7618",
"W  c #A07E12",
"Q  c #917627",
"!  c #837E3D",
"~  c #FA4B18",
"^  c #FF443A",
"/  c #B85645",
"(  c #857C53",
")  c #FF4A4A",
"_  c #FF5252",
"`  c #E24646",
"'  c #FF6E4F",
"]  c #238F19",
"[  c #648535",
"{  c #40B228",
"}  c #4FA54F",
"|  c #7D817B",
" . c #6FCF6F",
".. c #9B8C03",
"X. c #9A8608",
"o. c #9B871A",
"O. c #918A11",
"+. c #A3860F",
"@. c #A2930C",
"#. c #AB9E0A",
"$. c #A49605",
"%. c #AB8C13",
"&. c #A49313",
"*. c #A99A14",
"=. c #A89614",
"-. c #B19513",
";. c #B39E12",
":. c #B89E1A",
">. c #ADA009",
",. c #B3A512",
"<. c #BBB316",
"1. c #B4A811",
"2. c #8E8C39",
"3. c #9E8426",
"4. c #B69D29",
"5. c #B9A725",
"6. c #B7A82F",
"7. c #E88F17",
"8. c #C4B317",
"9. c #C9B519",
"0. c #C9BD18",
"q. c #CCBA2C",
"w. c #C5B929",
"e. c #CBAE34",
"r. c #CAC116",
"t. c #D4CB1C",
"y. c #D5C71C",
"u. c #DCD41D",
"i. c #DED91E",
"p. c #D7D11A",
"a. c #E2DE1E",
"s. c #D3C924",
"d. c #DCD725",
"f. c #D8CA33",
"g. c #CEC62B",
"h. c #E2DE21",
"j. c #E3DB39",
"k. c #EAE624",
"l. c #E7E23B",
"z. c #F1EE39",
"x. c #948050",
"c. c #AD974E",
"v. c #AFA945",
"b. c #949771",
"n. c #AA9D77",
"m. c #B3A06B",
"M. c #CBB562",
"N. c #BFC277",
"B. c #DBD248",
"V. c #D3C958",
"C. c #D3CC4B",
"Z. c #E0D64E",
"A. c #EBE745",
"S. c #F1EE49",
"D. c #F3F14E",
"F. c #F2F047",
"G. c #EDE955",
"H. c #F5F358",
"J. c #DBD46D",
"K. c #C3C373",
"L. c #E3DB65",
"P. c #E6E36A",
"I. c #F6F564",
"U. c #F8F76E",
"Y. c #FAF97B",
"T. c #F5F477",
"R. c #F0EB78",
"E. c #040482",
"W. c #6B97D1",
"Q. c #838A84",
"!. c #868C88",
"~. c #8E9593",
"^. c #929793",
"/. c #B69F9F",
"(. c #9BA19F",
"). c #A4AAA8",
"_. c #AFB2B0",
"`. c #B5B8B6",
"'. c #FF9696",
"]. c #C4B78F",
"[. c #FFAE9D",
"{. c #FFBF9A",
"}. c #DCDA9D",
"|. c #FBFA89",
" X c #FFFE99",
".X c #FDFD95",
"XX c #EFED8A",
"oX c #D3D0B6",
"OX c #FEFDA8",
"+X c #FEFEB7",
"@X c #81B6ED",
"#X c #C8CBC9",
"$X c #DEDFCD",
"%X c #D7D9D8",
"&X c #CFD2D1",
"*X c #FFFFCB",
"=X c #E6E6DD",
"-X c #ECEDED",
";X c #E6E7E5",
":X c #F2F3F3",
/* pixels */
"                                                                ",
"                              d.                                ",
"                              a.i.                              ",
"                        `.    l.A.      %X                      ",
"                      *.@.V.Z.] R.  8.).y.....                  ",
"            -Xu.      G 2 *.g.{ 1 P.C.Q...2 2   9.4.            ",
"        I i ! d.(.q.  c v ..v., . B.XXo.X * X.b.v.-.4.Y         ",
"      F G 7   9.i.Q.Q h h 6 !.h.d.I $.+.% f 2.d.R.    ; F       ",
"      .X-X4.-X].X ,.p w $ $ Q 7.h.K H + j o.0.6 E -X-.}.B.Z     ",
"    ).^.b.A.q e | ;X+ w n.X B {.' l Z & oXo.J _.Q.w L.~.J.OX    ",
"  #XO.I.> X X X X - | u F _.V [.^ j /.0 m.).U k & @ ..G.| p.L.  ",
"  -.s.X X X X X e.V.c.&X^.-XB M b g 5 (.E %.X X X X X X #.| e.  ",
"  (   X X s % R.B.#X&.J.%.- I f a %.6.:.oX8.q.) ) V C X X *.&X  ",
"  K   X j h e.S.$X6.P.r.O # # # # = Z.y.p.=Xk.~ M m b v X *.=X  ",
"  Z   n v x U.I.b.2.OX..# ) _ _ _ ` G.Y.z.i D.H.h s & X     m.  ",
"    ;   m b  XXX:XY.U.O $ N N N N N A.+XI.&X|.OXX X X X   &.    ",
"      4 4 m U.R.!.OXV.# f x c c c c 6.*X.XN.|.|.X X X ; 4 x.    ",
"          7 F.P.=X|...# % & a s s & % +XY.~.N.H.X X 9 R         ",
"            q.C.i S.I $ % % & a & & % .XD.}.A.f.s X ..          ",
"            @ q.;Xf.: # f % & & & % $ w.h.u w.& & X >.          ",
"            *.Y oXq F O & d d d d s a l q.`.S $ X *.8.          ",
"            &.6 E %X*.O # & & a & % % X.:.%XO X G $.            ",
"            H 2 r.;.} R *.O # # # - -.T , I R <.>.p.            ",
"            D W &.=.G J +.+ o o O G J < J <.<.9 r.t             ",
"            L S / e.X.5 y.d.d.r.p.a.i.p.,.7 >.*.0 r             ",
"              Z E 5.q.f.U.S.1.U 9 L $.6.s.t.8., R P             ",
"              D =.5. .] l.D.I..X XY.H.z.k.8  .[ 9               ",
"                X.E e.8 < D.W.W. XY.'.z a.<.8.D 9               ",
"                  3 ,.5.l.D.E.y  XY.M.z.k.L >.                  ",
"                      5 Z.f.P T Q G O.f.<.7                     ",
"                                4                               ",
"                                                                "
};
